<svg width="870" height="870" viewBox="0 0 870 870" fill="none" xmlns="http://www.w3.org/2000/svg">
    <path d="M290.084 280.749L145.168 331.983L290.084 383.218L435 331.983L290.084 280.749Z" fill="#1A1629"/>
    <path d="M145.168 331.983L290.084 383.218L435 331.983" stroke="#1A1629" stroke-width="2" stroke-miterlimit="10"/>
    <path d="M290.084 217.291L145.168 268.517L290.084 319.751L435 268.517L290.084 217.291Z" fill="#EDEEEF"/>
    <path d="M145.168 268.517L290.084 319.751L435 268.517" stroke="#1A1629" stroke-width="2" stroke-miterlimit="10"/>
    <path d="M290.084 153.825L145.168 205.059L290.084 256.285L435 205.059L290.084 153.825Z" fill="#6EEDA3"/>
    <path d="M145.168 205.059L290.084 256.285L435 205.059" stroke="#1A1629" stroke-width="2" stroke-miterlimit="10"/>
    <path d="M213.158 672.188L233.716 690.032L288.526 619.945L313.191 640.59L443.369 469.417L558.47 672.188L589.99 637.362L647.541 731.853H165.204L213.158 672.188Z" fill="#F4F4F4"/>
    <path d="M664.828 731.853H147.917" stroke="#1A1629" stroke-width="2" stroke-miterlimit="10"/>
    <path d="M529.647 377.215C529.647 377.215 436.052 537.608 404.732 696.287L393.24 703.073L448.433 721.343C448.433 721.343 570.711 536.903 578.063 513.509C585.414 490.115 572.843 377.197 572.843 377.197" fill="#6EEDA3"/>
    <path d="M553.885 449.79C553.885 449.79 538.86 526.785 542.975 574.87C558.731 549.527 571.529 528.003 576.296 517.667L553.885 449.79Z" fill="#1A1629"/>
    <path d="M556.722 204.346V234.152L593.644 243.226V192.931L556.722 183.857V204.346Z" fill="#EDEEEF"/>
    <path d="M577.576 214.655C578.119 214.655 578.559 214.215 578.559 213.672C578.559 213.129 578.119 212.689 577.576 212.689C577.033 212.689 576.593 213.129 576.593 213.672C576.593 214.215 577.033 214.655 577.576 214.655Z" fill="#1A1629"/>
    <path d="M562.42 214.655C562.963 214.655 563.403 214.215 563.403 213.672C563.403 213.129 562.963 212.689 562.42 212.689C561.877 212.689 561.437 213.129 561.437 213.672C561.437 214.215 561.877 214.655 562.42 214.655Z" fill="#1A1629"/>
    <path d="M566.866 219.562V204.345H559.245" stroke="#1A1629" stroke-width="2" stroke-miterlimit="10"/>
    <path d="M579.438 204.345H571.816" stroke="#1A1629" stroke-width="2" stroke-miterlimit="10"/>
    <path d="M591.208 212.141V217.422C591.886 217.423 592.558 217.29 593.184 217.031C593.811 216.772 594.38 216.392 594.859 215.913C595.338 215.434 595.718 214.865 595.977 214.238C596.236 213.612 596.369 212.94 596.368 212.262C596.376 212.106 596.376 211.949 596.368 211.793C596.063 208.591 591.208 208.922 591.208 212.141Z" fill="#EDEEEF"/>
    <path d="M591.209 217.422C591.887 217.423 592.559 217.29 593.185 217.031C593.812 216.772 594.381 216.392 594.86 215.913C595.339 215.434 595.719 214.865 595.978 214.238C596.237 213.612 596.37 212.94 596.369 212.262" stroke="#1A1629" stroke-width="2" stroke-miterlimit="10"/>
    <path d="M586.745 241.529L593.644 243.226" stroke="#1A1629" stroke-width="2" stroke-miterlimit="10"/>
    <path d="M566.866 219.571L570.198 220.388" stroke="#1A1629" stroke-width="2" stroke-miterlimit="10" stroke-linecap="round"/>
    <path d="M556.722 212.68C556.722 212.68 549.31 234.43 559.245 241.529C569.181 248.629 598.708 244.47 590.73 215.334" stroke="#1A1629" stroke-width="2" stroke-miterlimit="10"/>
    <path d="M561.15 219.962C561.015 220.181 560.938 220.431 560.928 220.688C560.917 220.945 560.973 221.201 561.091 221.43C561.208 221.659 561.382 221.854 561.597 221.996C561.811 222.139 562.059 222.223 562.316 222.241C564.447 222.711 567.675 218.509 570.468 220.797C570.468 220.797 571.094 217.569 578.054 219.501C585.014 221.432 582.613 216.839 582.613 216.839" stroke="#1A1629" stroke-width="2" stroke-miterlimit="10"/>
    <path d="M569.598 223.703C570.223 223.995 570.9 224.16 571.589 224.189C572.278 224.218 572.966 224.11 573.613 223.871C574.261 223.633 574.854 223.268 575.359 222.799C575.865 222.329 576.272 221.764 576.558 221.136" stroke="#6EEDA3" stroke-width="1.5" stroke-miterlimit="10"/>
    <path d="M554.068 193.844C554.068 193.844 556.565 204.615 579.437 198.194C579.437 198.194 580.82 204.05 584.753 204.284C588.685 204.519 588.529 208.487 588.529 208.487" stroke="#1A1629" stroke-width="2" stroke-miterlimit="10"/>
    <path d="M556.722 204.346C556.722 204.346 532.849 183.753 560.889 182.7C588.929 181.647 604.111 190.356 593.792 209.557" stroke="#1A1629" stroke-width="2" stroke-miterlimit="10"/>
    <path d="M529.647 296.592V377.215L643.852 405.281V315.497C643.853 300.026 638.667 285.001 629.121 272.825C619.576 260.649 606.224 252.025 591.199 248.333C583.882 246.535 576.252 246.425 568.885 248.01C561.519 249.595 554.61 252.835 548.68 257.484C542.75 262.133 537.955 268.07 534.658 274.845C531.36 281.62 529.647 289.057 529.647 296.592Z" fill="#EDEEEF"/>
    <path d="M643.852 405.281L554.068 383.218C554.068 383.218 547.978 601.483 583.474 720.021L577.576 731.853H636.431C636.431 731.853 648.15 453.035 643.852 405.281Z" fill="#6EEDA3"/>
    <path d="M554.068 383.218C554.068 383.218 547.978 601.483 583.474 720.021" stroke="#1A1629" stroke-width="2" stroke-miterlimit="10"/>
    <path d="M608.043 254.91C608.043 254.91 676.773 295.469 674.65 362.981C672.527 430.493 623.842 457.62 623.842 457.62" stroke="#1A1629" stroke-width="2" stroke-miterlimit="10"/>
    <path d="M605.746 420.393C605.746 420.393 615.838 457.281 632.89 464.937" stroke="#1A1629" stroke-width="2" stroke-miterlimit="10"/>
    <path d="M596.368 323.074L632.891 367.618L606.66 423.446" stroke="#1A1629" stroke-width="2" stroke-miterlimit="10"/>
    <path d="M609 418.522L632.916 367.619L604.911 333.454C604.911 333.454 621.946 384.54 609 418.522Z" fill="#1A1629"/>
    <path d="M542.263 263.497L493.29 302.255C493.29 302.255 436.879 230.376 424.412 226.565C411.945 222.755 396.772 230.741 396.772 230.741V235.466L411.206 238.076C411.206 238.076 409.109 254.91 418.288 262.74C418.288 262.74 446.763 366.818 489.514 367.14C518.746 367.366 529.648 359.258 529.648 359.258" stroke="#1A1629" stroke-width="2" stroke-miterlimit="10"/>
    <path d="M448.746 731.853H756.343" stroke="#1A1629" stroke-width="2" stroke-miterlimit="10"/>
    <path d="M719.968 729.434C719.968 729.434 725.266 720.055 711.807 718.02C703.816 716.782 695.637 717.77 688.17 720.873C688.17 720.873 697.548 709.459 682.871 704.561C668.194 699.663 653.109 711.086 653.109 711.086C653.109 711.086 667.785 683.768 656.371 681.732C644.957 679.696 638.841 691.519 638.841 691.519C638.841 691.519 640.059 657.676 616.412 656.859C592.765 656.041 595.219 700.08 595.219 700.08C595.219 700.08 585.022 680.505 567.901 679.696C550.779 678.887 559.34 712.478 559.34 712.478C559.34 712.478 556.077 704.561 544.663 703.778C533.249 702.995 534.049 712.53 534.049 712.53C534.049 712.53 519.39 691.92 503.068 693.146C486.747 694.373 493.69 714.757 493.69 714.757C476.968 713.53 473.28 731.853 473.28 731.853H731.791L719.968 729.434Z" fill="#1A1629"/>
</svg>
