<svg id="arrowRight" width="24" height="24" viewBox="0 0 24 24" xmlns="http://www.w3.org/2000/svg">
    <path d="M13.2656 6.98438C12.9844 6.70312 12.4688 6.70312 12.1875 6.98438C11.9062 7.26562 11.9062 7.78125 12.1875 8.0625L15.4219 11.25H6.75C6.32812 11.25 6 11.625 6 12C6 12.4219 6.32812 12.75 6.75 12.75H15.4219L12.1875 15.9844C11.9062 16.2656 11.9062 16.7812 12.1875 17.0625C12.4688 17.3438 12.9844 17.3438 13.2656 17.0625L17.7656 12.5625C17.9062 12.4219 18 12.2344 18 12C18 11.8125 17.9062 11.625 17.7656 11.4844L13.2656 6.98438ZM12 0C5.34375 0 0 5.39062 0 12C0 18.6562 5.34375 24 12 24C18.6094 24 24 18.6562 24 12C24 5.39062 18.6094 0 12 0ZM12 22.5C6.1875 22.5 1.5 17.8125 1.5 12C1.5 6.23438 6.1875 1.5 12 1.5C17.7656 1.5 22.5 6.23438 22.5 12C22.5 17.8125 17.7656 22.5 12 22.5Z"/>
</svg>
