<svg id="arrowLeft" width="24" height="24" viewBox="0 0 24 24" xmlns="http://www.w3.org/2000/svg">
    <path d="M17.25 11.25H8.53125L11.7656 8.0625C12.0469 7.78125 12.0469 7.26562 11.7656 6.98438C11.4844 6.70312 10.9688 6.70312 10.6875 6.98438L6.1875 11.4844C6.04688 11.625 6 11.8125 6 12C6 12.2344 6.04688 12.4219 6.1875 12.5625L10.6875 17.0625C10.9688 17.3438 11.4844 17.3438 11.7656 17.0625C12.0469 16.7812 12.0469 16.2656 11.7656 15.9844L8.53125 12.75H17.25C17.625 12.75 18 12.4219 18 12C18 11.625 17.625 11.25 17.25 11.25ZM12 0C5.34375 0 0 5.39062 0 12C0 18.6562 5.34375 24 12 24C18.6094 24 24 18.6562 24 12C24 5.39062 18.6094 0 12 0ZM12 22.5C6.1875 22.5 1.5 17.8125 1.5 12C1.5 6.23438 6.1875 1.5 12 1.5C17.7656 1.5 22.5 6.23438 22.5 12C22.5 17.8125 17.7656 22.5 12 22.5Z"/>
</svg>
