<svg id="arrowSide" width="24" height="24" viewBox="0 0 24 24" xmlns="http://www.w3.org/2000/svg">
    <path d="M15.75 7.54688L9.75 7.5C9.32812 7.5 9 7.875 9 8.25C8.95312 8.67188 9.32812 9 9.70312 9L13.875 9.04688L7.64062 15.2344C7.35938 15.5156 7.35938 16.0312 7.64062 16.3125C7.82812 16.4531 8.01562 16.5 8.25 16.5C8.4375 16.5 8.625 16.4531 8.76562 16.3125L15 10.0781V14.25C15 14.6719 15.3281 15 15.75 15C16.125 15 16.5 14.6719 16.5 14.25V8.29688C16.5 7.875 16.125 7.54688 15.75 7.54688ZM12 0C5.34375 0 0 5.39062 0 12C0 18.6562 5.34375 24 12 24C18.6094 24 24 18.6562 24 12C24 5.39062 18.6094 0 12 0ZM12 22.5C6.1875 22.5 1.5 17.8125 1.5 12C1.5 6.23438 6.1875 1.5 12 1.5C17.7656 1.5 22.5 6.23438 22.5 12C22.5 17.8125 17.7656 22.5 12 22.5Z"/>
</svg>
