<svg id="arrowBack" width="24" height="24" viewBox="0 0 24 24" xmlns="http://www.w3.org/2000/svg">
<path d="M9.5 7.21875C9.65625 7.375 9.75 7.5625 9.75 7.75C9.75 7.96875 9.65625 8.15625 9.5 8.28125L6.53125 11.25H19.25C19.6562 11.25 20 11.5938 20 12C20 12.4375 19.6562 12.75 19.25 12.75H6.53125L9.5 15.75C9.8125 16.0313 9.8125 16.5 9.5 16.7813C9.21875 17.0938 8.75 17.0938 8.46875 16.7813L4.21875 12.5313C3.90625 12.25 3.90625 11.7813 4.21875 11.5L8.46875 7.25C8.75 6.9375 9.21875 6.9375 9.5 7.21875Z"/>
</svg>
