<svg id="attach" width="24" height="24" viewBox="0 0 24 24" xmlns="http://www.w3.org/2000/svg">
    <path d="M7.875 14.8594C7.54688 15.1875 7.40625 15.6094 7.40625 16.0312C7.40625 16.5 7.73438 17.7188 9.09375 17.7188C9.5625 17.7188 9.98438 17.5781 10.3125 17.25L20.3906 7.21875C21 6.5625 21.3281 5.71875 21.3281 4.875C21.3281 3 19.8281 1.5 18 1.5C17.1562 1.5 16.3125 1.82812 15.6562 2.48438L4.07812 14.0625C3.09375 15 2.625 16.2656 2.625 17.5781C2.625 18.9375 3.65625 22.4531 7.59375 22.4531C8.85938 22.4531 10.1719 21.9844 11.1094 21.0469L19.7812 12.4219C19.9219 12.2344 20.1094 12.1875 20.3438 12.1875C20.7656 12.1875 21.0938 12.5156 21.0938 12.9375C21.0938 13.125 21 13.3125 20.8594 13.4531L12.1875 22.125C10.9219 23.3438 9.32812 24 7.59375 24C3.98438 24 1.125 21.0938 1.125 17.5781C1.125 15.8906 1.73438 14.25 3 12.9844L14.5781 1.45312C15.5156 0.515625 16.7812 0.046875 18 0.046875C20.6719 0.046875 22.875 2.15625 22.875 4.875C22.875 6.14062 22.3594 7.35938 21.4219 8.29688L11.3906 18.3281C10.7344 18.9375 9.9375 19.2656 9.09375 19.2656C7.35938 19.2656 5.90625 17.8594 5.90625 16.0312C5.90625 15.2344 6.1875 14.3906 6.84375 13.7812L14.0156 6.65625C14.1562 6.51562 14.3438 6.42188 14.5312 6.42188C14.9531 6.42188 15.2812 6.75 15.2812 7.17188C15.2812 7.35938 15.1875 7.54688 15.0469 7.6875L7.875 14.8594Z"/>
</svg>
