<svg id="burger" width="24" height="24" viewBox="0 0 24 24" xmlns="http://www.w3.org/2000/svg">
    <path d="M5 6.75C5 6.34375 5.3125 6 5.75 6H18.25C18.6562 6 19 6.34375 19 6.75C19 7.1875 18.6562 7.5 18.25 7.5H5.75C5.3125 7.5 5 7.1875 5 6.75ZM5 11.75C5 11.3438 5.3125 11 5.75 11H18.25C18.6562 11 19 11.3438 19 11.75C19 12.1875 18.6562 12.5 18.25 12.5H5.75C5.3125 12.5 5 12.1875 5 11.75ZM19 16.75C19 17.1875 18.6562 17.5 18.25 17.5H5.75C5.3125 17.5 5 17.1875 5 16.75C5 16.3438 5.3125 16 5.75 16H18.25C18.6562 16 19 16.3438 19 16.75Z" />
</svg>
