<svg width="100" height="41" viewBox="0 0 100 41" fill="none" xmlns="http://www.w3.org/2000/svg">
<g filter="url(#filter0_d_810_318)">
<path d="M3.35813 3.35867C5.21307 1.50373 8.22052 1.50373 10.0755 3.35867L23.5101 16.7934C25.3651 18.6483 25.3651 21.6558 23.5101 23.5107C21.6552 25.3656 18.6478 25.3656 16.7928 23.5107L3.35813 10.076C1.50318 8.22107 1.50318 5.21361 3.35813 3.35867Z" fill="#6EEDA3"/>
<path d="M3.35867 36.929C1.50373 35.074 1.50373 32.0666 3.35867 30.2116L16.7934 16.777C18.6483 14.922 21.6558 14.922 23.5107 16.777C25.3656 18.6319 25.3656 21.6394 23.5107 23.4943L10.076 36.929C8.22107 38.7839 5.21361 38.7839 3.35867 36.929Z" fill="#4B28CC"/>
<path fill-rule="evenodd" clip-rule="evenodd" d="M23.4328 23.7771C21.6441 25.4838 18.9295 25.4041 17.2273 23.538L14 20L17.2273 16.462C18.9295 14.5959 21.644 14.5162 23.4327 16.2228L23.6664 16.4791C24.554 17.4521 24.9985 18.7268 25 20.0021C24.9975 21.276 24.553 22.549 23.6664 23.5209L23.4328 23.7771Z" fill="#6747E7"/>
</g>
<path d="M41.7429 20.4044C41.7429 21.036 41.6333 21.6316 41.4142 22.1911C41.1951 22.7452 40.8804 23.2327 40.4702 23.6537C40.0657 24.0693 39.5741 24.3989 38.9953 24.6427C38.4222 24.8809 37.7789 25 37.0653 25C36.7787 25 36.5062 24.9751 36.2478 24.9252C35.9893 24.8753 35.7449 24.8061 35.5145 24.7175C35.2842 24.6288 35.0706 24.5263 34.874 24.41C34.6773 24.2936 34.4975 24.1717 34.3346 24.0443L34.2166 24.7091H32V13H34.6043V16.5817C34.9189 16.3546 35.2813 16.169 35.6915 16.0249C36.1073 15.8809 36.5793 15.8089 37.1074 15.8089C37.8266 15.8089 38.4728 15.9307 39.0459 16.1745C39.619 16.4183 40.105 16.7479 40.504 17.1634C40.9029 17.5789 41.2091 18.0665 41.4226 18.626C41.6361 19.1801 41.7429 19.7729 41.7429 20.4044ZM39.1302 20.3961C39.1302 20.0416 39.0712 19.7202 38.9532 19.4321C38.8352 19.1385 38.6723 18.8892 38.4644 18.6842C38.2565 18.4737 38.0092 18.313 37.7227 18.2022C37.4417 18.0859 37.1383 18.0277 36.8124 18.0277C36.4922 18.0277 36.1888 18.0859 35.9022 18.2022C35.6213 18.313 35.3741 18.4737 35.1605 18.6842C34.9526 18.8892 34.7869 19.1385 34.6633 19.4321C34.5397 19.7202 34.4779 20.0416 34.4779 20.3961C34.4779 20.7562 34.5369 21.0859 34.6549 21.385C34.7785 21.6787 34.9442 21.9307 35.1521 22.1413C35.3656 22.3463 35.6128 22.5069 35.8938 22.6233C36.1747 22.7341 36.4781 22.7895 36.804 22.7895C37.1243 22.7895 37.4249 22.7341 37.7058 22.6233C37.9924 22.5069 38.2396 22.3435 38.4475 22.133C38.661 21.9224 38.8268 21.6704 38.9448 21.3767C39.0684 21.0831 39.1302 20.7562 39.1302 20.3961Z" fill="white"/>
<path d="M57.5796 24.7091H54.9669V20.1219C54.9669 19.4017 54.8461 18.8726 54.6045 18.5346C54.3629 18.1967 54.0033 18.0277 53.5257 18.0277C53.2448 18.0277 52.9891 18.0748 52.7588 18.169C52.5284 18.2632 52.3317 18.3989 52.1688 18.5762C52.0059 18.7535 51.8766 18.9695 51.7811 19.2244C51.6912 19.4737 51.6434 19.7562 51.6378 20.072V24.7091H49.0167V20.1219C49.0167 19.4017 48.8959 18.8726 48.6543 18.5346C48.4127 18.1967 48.0531 18.0277 47.5755 18.0277C47.2889 18.0277 47.0277 18.0776 46.7917 18.1773C46.5613 18.2715 46.3618 18.4127 46.1933 18.6011C46.0303 18.7895 45.9039 19.0194 45.814 19.2909C45.7297 19.5568 45.6876 19.8587 45.6876 20.1967V24.7091H43.0833V16.0914H45.1819L45.3336 16.6898C45.6595 16.4515 46.0444 16.2465 46.4883 16.0748C46.9378 15.903 47.435 15.8172 47.98 15.8172C48.5588 15.8172 49.0757 15.9169 49.5308 16.1163C49.9859 16.3102 50.3736 16.5873 50.6939 16.9474C50.8681 16.7978 51.0647 16.6537 51.2838 16.5152C51.503 16.3767 51.7418 16.2576 52.0002 16.1579C52.2643 16.0526 52.5481 15.9695 52.8515 15.9086C53.1605 15.8476 53.4892 15.8172 53.8376 15.8172C54.4444 15.8172 54.981 15.9141 55.4473 16.108C55.9137 16.3019 56.3042 16.5817 56.6188 16.9474C56.9391 17.313 57.1779 17.759 57.3352 18.2853C57.4982 18.8061 57.5796 19.3961 57.5796 20.0554V24.7091Z" fill="white"/>
<path d="M64.1121 13.7147L65.9831 13.6981V16.0914H68.52V18.2936H65.9831V21.3186C65.9831 21.5845 66.014 21.8061 66.0759 21.9834C66.1433 22.1551 66.2304 22.2936 66.3371 22.3989C66.4495 22.4986 66.5815 22.5679 66.7332 22.6066C66.885 22.6454 67.0479 22.6648 67.2221 22.6648H68.6801L68.6633 24.7673H66.9692C66.4804 24.7673 66.0169 24.7258 65.5786 24.6427C65.146 24.554 64.7667 24.3878 64.4408 24.144C64.1149 23.8947 63.8565 23.5485 63.6654 23.1053C63.48 22.6565 63.3873 22.0693 63.3873 21.3435V18.2936H61.9966V16.3324C63.2018 16.1951 64.1121 15.1753 64.1121 13.9623V13.7147Z" fill="white"/>
<path d="M69.5233 20.4044C69.5233 19.7729 69.6413 19.1801 69.8773 18.626C70.1133 18.0665 70.4448 17.5789 70.8718 17.1634C71.3044 16.7479 71.8157 16.4211 72.4057 16.1828C73.0013 15.9391 73.6587 15.8172 74.3779 15.8172C75.1027 15.8172 75.7629 15.9391 76.3585 16.1828C76.9597 16.4211 77.4738 16.7479 77.9008 17.1634C78.3335 17.5789 78.6678 18.0665 78.9038 18.626C79.1454 19.1801 79.2662 19.7729 79.2662 20.4044C79.2662 20.5817 79.2578 20.7202 79.2409 20.8199C79.2297 20.9197 79.2156 21.0194 79.1988 21.1191H72.2119C72.2793 21.3906 72.3832 21.6343 72.5237 21.8504C72.6698 22.0665 72.8383 22.2521 73.0294 22.4072C73.226 22.5568 73.4395 22.6731 73.6699 22.7562C73.9003 22.8393 74.1419 22.8809 74.3947 22.8809C74.8049 22.8809 75.1617 22.795 75.4651 22.6233C75.7685 22.4515 75.9989 22.2327 76.1562 21.9668H78.9712C78.842 22.3435 78.6453 22.7147 78.3812 23.0803C78.1171 23.4404 77.7913 23.7618 77.4036 24.0443C77.0159 24.3269 76.5664 24.554 76.0551 24.7258C75.5494 24.8975 74.9903 24.9834 74.3779 24.9834C73.6643 24.9834 73.0097 24.8643 72.4141 24.626C71.8185 24.3823 71.3072 24.0526 70.8802 23.6371C70.4532 23.2216 70.1189 22.7368 69.8773 22.1828C69.6413 21.6233 69.5233 21.0305 69.5233 20.4044ZM74.3947 17.9695C73.934 17.9695 73.521 18.0942 73.1558 18.3435C72.7906 18.5873 72.5181 18.9169 72.3383 19.3324H76.4512C76.3613 19.1274 76.2461 18.9418 76.1056 18.7756C75.9652 18.6039 75.805 18.4598 75.6252 18.3435C75.4511 18.2216 75.2572 18.1302 75.0437 18.0693C74.8358 18.0028 74.6195 17.9695 74.3947 17.9695Z" fill="white"/>
<path d="M82.7895 20.3961C82.7895 20.7673 82.8513 21.0997 82.9749 21.3934C83.0985 21.687 83.2614 21.9363 83.4637 22.1413C83.6716 22.3407 83.9132 22.4958 84.1885 22.6066C84.4639 22.7119 84.7532 22.7645 85.0566 22.7645C85.5061 22.7645 85.9079 22.6565 86.2618 22.4404C86.6214 22.2188 86.8968 21.9114 87.0878 21.518H89.7427C89.6247 22.0111 89.428 22.4709 89.1527 22.8975C88.883 23.3186 88.5459 23.6842 88.1413 23.9945C87.7368 24.3047 87.2704 24.5457 86.7422 24.7175C86.2197 24.8947 85.6522 24.9834 85.0398 24.9834C84.3262 24.9834 83.6716 24.8643 83.076 24.626C82.4804 24.3823 81.9691 24.0526 81.5421 23.6371C81.1151 23.2216 80.7808 22.7368 80.5392 22.1828C80.3032 21.6233 80.1852 21.0305 80.1852 20.4044C80.1852 19.7784 80.3032 19.1884 80.5392 18.6343C80.7752 18.0748 81.1067 17.5873 81.5337 17.1717C81.9663 16.7507 82.4776 16.4183 83.0676 16.1745C83.6632 15.9307 84.3206 15.8089 85.0398 15.8089C85.6522 15.8089 86.2197 15.8975 86.7422 16.0748C87.2648 16.2465 87.7255 16.4875 88.1245 16.7978C88.529 17.1025 88.8689 17.4681 89.1443 17.8947C89.4196 18.3158 89.619 18.7756 89.7427 19.2742L87.0878 19.2825C86.8968 18.8837 86.6214 18.5762 86.2618 18.3601C85.9079 18.1385 85.5061 18.0277 85.0566 18.0277C84.7532 18.0277 84.4639 18.0831 84.1885 18.1939C83.9132 18.2992 83.6716 18.4543 83.4637 18.6593C83.2558 18.8643 83.0901 19.1136 82.9665 19.4072C82.8485 19.6953 82.7895 20.0249 82.7895 20.3961Z" fill="white"/>
<path d="M100 24.7091H97.3789V20.1219C97.3789 19.7064 97.3339 19.3657 97.244 19.0997C97.1597 18.8283 97.0361 18.615 96.8732 18.4598C96.7159 18.2992 96.522 18.1884 96.2916 18.1274C96.0669 18.0609 95.8112 18.0277 95.5247 18.0277C95.2381 18.0277 94.974 18.0803 94.7324 18.1856C94.4908 18.2909 94.2829 18.4404 94.1088 18.6343C93.9402 18.8227 93.8082 19.0471 93.7126 19.3075C93.6171 19.5679 93.5694 19.856 93.5694 20.1717V24.7175H90.9651V13H93.5525L93.5356 16.6482C93.8671 16.4155 94.2464 16.2188 94.6734 16.0582C95.1005 15.8975 95.5556 15.8172 96.0388 15.8172C96.7355 15.8172 97.3339 15.9141 97.834 16.108C98.334 16.3019 98.7442 16.5817 99.0645 16.9474C99.3848 17.313 99.6207 17.759 99.7724 18.2853C99.9241 18.8116 100 19.4072 100 20.072V24.7091Z" fill="white"/>
<defs>
<filter id="filter0_d_810_318" x="-1" y="0" width="28.8691" height="42.2876" filterUnits="userSpaceOnUse" color-interpolation-filters="sRGB">
<feFlood flood-opacity="0" result="BackgroundImageFix"/>
<feColorMatrix in="SourceAlpha" type="matrix" values="0 0 0 0 0 0 0 0 0 0 0 0 0 0 0 0 0 0 127 0" result="hardAlpha"/>
<feOffset dy="1"/>
<feGaussianBlur stdDeviation="0.5"/>
<feComposite in2="hardAlpha" operator="out"/>
<feColorMatrix type="matrix" values="0 0 0 0 0 0 0 0 0 0 0 0 0 0 0 0 0 0 0.25 0"/>
<feBlend mode="normal" in2="BackgroundImageFix" result="effect1_dropShadow_810_318"/>
<feBlend mode="normal" in="SourceGraphic" in2="effect1_dropShadow_810_318" result="shape"/>
</filter>
</defs>
</svg>
