<svg id="xmark" width="24" height="24" viewBox="0 0 24 24" xmlns="http://www.w3.org/2000/svg">
    <path d="M16.75 15.7188C17.0312 16.0312 17.0312 16.5 16.75 16.7812C16.4375 17.0938 15.9688 17.0938 15.6875 16.7812L12 13.0625L8.28125 16.7812C7.96875 17.0938 7.5 17.0938 7.21875 16.7812C6.90625 16.5 6.90625 16.0312 7.21875 15.7188L10.9375 12L7.21875 8.28125C6.90625 7.96875 6.90625 7.5 7.21875 7.21875C7.5 6.90625 7.96875 6.90625 8.25 7.21875L12 10.9688L15.7188 7.25C16 6.9375 16.4688 6.9375 16.75 7.25C17.0625 7.53125 17.0625 8 16.75 8.3125L13.0312 12L16.75 15.7188Z" />
</svg>
